<?xml version="1.0"?>
<svg width="300" height="220" xmlns="http://www.w3.org/2000/svg" xmlns:svg="http://www.w3.org/2000/svg" data-name="Слой 1">
 <defs>
  <style>.cls-1{fill:none;stroke:#000;stroke-linecap:round;stroke-miterlimit:10;stroke-width:0.5px;}.cls-2{font-size:14px;fill:#010000;font-family:Roboto-Regular, Roboto;}.cls-3{fill:#c1c1c1;}</style>
 </defs>
 <g class="layer">
  <title>Layer 1</title>
  <g id="svg_8">
   <g id="svg_9">
    <path d="m151.95,114.93a1.8,1.54 0 0 1 -1.16,1.45l-6.29,2.09a1.52,1.3 0 0 1 -0.69,0.12a1.87,1.6 0 0 1 -1.7,-0.98l-0.92,-1.98a1.83,1.55 0 0 1 -0.13,-0.57a1.46,1.24 0 0 1 0.19,-0.64a4.99,4.24 0 0 1 1.1,-0.79s0,0 0,0l2.3,-0.79a1.18,1.01 0 0 0 0.79,-0.97a1.39,1.19 0 0 0 0,-0.37l-16.3,-35.06a1.23,1.04 0 0 0 -1.14,-0.65l-22.38,0.01a15.72,13.39 0 0 0 -15.55,13.37a16.19,13.79 0 0 0 0.95,4.65l3.35,7.12l29.88,63.65l0,0a1.18,1.01 0 0 0 1.14,0.65l0.82,0a6.13,5.21 0 0 1 2.84,9.82a6.16,5.25 0 0 1 -7.97,-1.82a0.66,0.57 0 0 1 0,-0.18l-35.64,-77.34l0,0a20.97,17.87 0 0 1 2.9,-18.45l5.78,-6.28a1.2,1.02 0 0 1 0.97,-0.41l31,-0.01a1.83,1.55 0 0 0 1.83,-1.56l0,-8.35a1.76,1.5 0 0 0 -1.7,-1.5l-28.84,0.01a1.3,1.12 0 0 1 -1.29,-1.08l0,-2.63a1.23,1.04 0 0 1 1.24,-1.02l28.72,-0.01a7.33,6.23 0 0 1 7.33,6.23l0,8.86a1.23,1.04 0 0 0 1.23,1.02l28.12,-0.01a3.04,2.59 0 0 0 3.07,-2.59l-0.01,-36.41a1.24,1.06 0 0 1 0.35,-0.74l0.17,-0.15a1.24,1.06 0 0 0 0.37,-0.75a1.2,1.02 0 0 0 -0.37,-0.74l-0.17,-0.15a1.27,1.08 0 0 1 -0.35,-0.74l-0.01,-25.95a3.04,2.59 0 0 1 6.1,0l0.03,77.93a1.18,1.01 0 0 1 -0.92,1.09c-0.75,0.15 -1.33,-0.65 -1.33,-0.65s-2.78,-3.65 -3.7,-4.94l-30.42,0.01a1.84,1.57 0 0 0 -1.14,1.46a1.87,1.6 0 0 0 0,0.52l11.04,23.48l4.77,0a2.44,2.09 0 0 1 1.05,0.34a1.93,1.65 0 0 1 0.38,0.75l0.31,12.56l0,0.07z" id="svg_1"/>
    <line class="cls-1" id="svg_2" points="null" x1="205.08" x2="205.13" y1="-0.25" y2="175.63"/>
    <text class="cls-2" id="svg_3" transform="matrix(2.1471 -0.000785829 0.00058855 1.82902 -125.554 -149.191)" x="162.6" y="134.93">34</text>
    <line class="cls-1" id="svg_4" points="null" x1="131.9" x2="171.77" y1="177.69" y2="177.67"/>
    <text class="cls-2" id="svg_5" transform="matrix(2.1471 -0.000785829 0.00058855 1.82902 -125.593 -149.223)" x="125.27" y="200.93">7</text>
    <rect class="cls-3" height="8.46" id="svg_6" transform="matrix(1.2788 -0.000468034 0.000438856 1.36382 -23.3811 -69.3035)" width="2.69" x="132.55" y="170.6"/>
    <path class="cls-3" d="m154.76,87.07l0,-4.54s0,-0.93 0.64,-1.27s4.83,-2.57 4.83,-2.57s1.76,-0.66 2.15,0.22s8.33,17.06 8.33,17.06l0.02,61.17s-0.47,7.31 -8.89,7.61s-16.32,0.01 -16.32,0.01s-1.23,0 -1.23,-1.19l-0.01,-40.48a5.05,4.3 0 0 1 3.13,-3.32c2.75,-0.81 7.21,-2.36 7.21,-3.79l-0.01,-19.48s-0.32,-2.1 -2.15,-1.55a22.33,19.03 0 0 0 -2.97,1.08s-1.7,0.85 -1.59,-0.42s0,-3.93 0,-3.93a2.31,1.98 0 0 1 1.43,-1.83c1.57,-0.74 5.38,-2.8 5.38,-2.8l0.03,0.01z" id="svg_7"/>
   </g>
  </g>
 </g>
</svg>