<svg width="155" height="315" viewBox="0 0 155 315" fill="none" xmlns="http://www.w3.org/2000/svg">
<path d="M91.0814 184.801H86.5604C86.0927 184.801 85.625 184.333 85.625 183.866V1.93537C85.625 1.46768 86.0927 1 86.5604 1H90.146C90.6137 1 91.0814 1.46768 91.0814 1.93537V17.8367C91.0814 18.3044 91.549 18.7721 92.0167 18.7721H133.017C133.173 18.7721 133.329 18.7721 133.485 18.7721C135.512 18.928 136.915 20.6429 136.759 22.5136C136.603 24.5403 134.888 25.9433 133.017 25.7874H92.0167C91.549 25.7874 91.0814 26.2551 91.0814 26.7228V43.7154C91.0814 44.1831 91.549 44.6508 92.0167 44.6508H150.478C150.945 44.6508 151.413 45.1185 151.413 45.5862V49.1718C151.413 49.6395 150.945 50.1072 150.478 50.1072H92.0167C91.549 50.1072 91.0814 50.5748 91.0814 51.0425V71.6208V93.758V126.964V175.447C91.0814 177.318 92.1726 178.877 93.8875 179.501L96.8495 180.592C97.9408 181.06 98.8761 181.839 99.3438 182.93L105.268 196.337L124.287 239.521C125.067 240.456 125.067 241.703 124.443 242.638H121.637C121.169 242.638 120.857 242.483 120.546 242.171L115.245 237.494C115.089 237.338 115.089 237.338 115.089 237.182L107.295 220.501C107.139 220.034 106.515 219.878 106.203 220.034L103.241 221.437C103.085 221.592 102.774 221.593 102.462 221.748C99.9674 222.684 97.1613 222.684 94.667 221.748C94.1993 221.593 94.0434 220.969 94.1993 220.501L95.4464 218.163C95.6023 217.695 96.07 217.539 96.5377 217.695C99.9674 218.942 103.709 217.072 104.956 213.642C106.203 210.212 104.332 206.471 100.903 205.223C97.629 204.132 93.8875 205.691 92.6403 208.965C92.4844 209.433 92.0167 209.589 91.549 209.433L89.0547 208.653C88.587 208.497 88.4311 208.03 88.587 207.562C89.6783 204.756 91.7049 202.573 94.5111 201.482L98.7203 199.611C99.0321 199.455 99.1879 199.144 99.1879 198.832L94.8229 186.828C94.667 186.516 94.5111 186.36 94.3552 186.36L92.0167 185.425C91.2373 184.957 91.2372 184.801 91.0814 184.801Z" stroke="black" stroke-miterlimit="10"/>
<path d="M67.0781 2V242.079" stroke="black" stroke-width="0.5" stroke-linecap="round" stroke-linejoin="round"/>
<path d="M153.997 271.941H125" stroke="black" stroke-width="0.5" stroke-linecap="round" stroke-linejoin="round"/>
<path d="M154.126 314.031H86" stroke="black" stroke-width="0.5" stroke-linecap="round" stroke-linejoin="round"/>
<path d="M4.16016 127.879L2.42578 127.434L3.28125 118.938H12.0352V120.941H5.12109L4.60547 125.582C4.91797 125.402 5.3125 125.234 5.78906 125.078C6.27344 124.922 6.82812 124.844 7.45312 124.844C8.24219 124.844 8.94922 124.98 9.57422 125.254C10.1992 125.52 10.7305 125.902 11.168 126.402C11.6133 126.902 11.9531 127.504 12.1875 128.207C12.4219 128.91 12.5391 129.695 12.5391 130.562C12.5391 131.383 12.4258 132.137 12.1992 132.824C11.9805 133.512 11.6484 134.113 11.2031 134.629C10.7578 135.137 10.1953 135.531 9.51562 135.812C8.84375 136.094 8.05078 136.234 7.13672 136.234C6.44922 136.234 5.79688 136.141 5.17969 135.953C4.57031 135.758 4.02344 135.465 3.53906 135.074C3.0625 134.676 2.67188 134.184 2.36719 133.598C2.07031 133.004 1.88281 132.309 1.80469 131.512H3.86719C3.96094 132.152 4.14844 132.691 4.42969 133.129C4.71094 133.566 5.07812 133.898 5.53125 134.125C5.99219 134.344 6.52734 134.453 7.13672 134.453C7.65234 134.453 8.10938 134.363 8.50781 134.184C8.90625 134.004 9.24219 133.746 9.51562 133.41C9.78906 133.074 9.99609 132.668 10.1367 132.191C10.2852 131.715 10.3594 131.18 10.3594 130.586C10.3594 130.047 10.2852 129.547 10.1367 129.086C9.98828 128.625 9.76562 128.223 9.46875 127.879C9.17969 127.535 8.82422 127.27 8.40234 127.082C7.98047 126.887 7.49609 126.789 6.94922 126.789C6.22266 126.789 5.67188 126.887 5.29688 127.082C4.92969 127.277 4.55078 127.543 4.16016 127.879ZM26.0892 130.258V132.039H13.7611V130.762L21.4017 118.938H23.1713L21.2728 122.359L16.222 130.258H26.0892ZM23.7103 118.938V136H21.5423V118.938H23.7103ZM27.9675 134.852C27.9675 134.484 28.0808 134.176 28.3073 133.926C28.5417 133.668 28.8777 133.539 29.3152 133.539C29.7527 133.539 30.0847 133.668 30.3113 133.926C30.5456 134.176 30.6628 134.484 30.6628 134.852C30.6628 135.211 30.5456 135.516 30.3113 135.766C30.0847 136.016 29.7527 136.141 29.3152 136.141C28.8777 136.141 28.5417 136.016 28.3073 135.766C28.0808 135.516 27.9675 135.211 27.9675 134.852ZM41.9864 118.914H42.1739V120.754H41.9864C40.838 120.754 39.877 120.941 39.1036 121.316C38.3302 121.684 37.7169 122.18 37.2637 122.805C36.8106 123.422 36.4825 124.117 36.2794 124.891C36.0841 125.664 35.9864 126.449 35.9864 127.246V129.754C35.9864 130.512 36.0762 131.184 36.2559 131.77C36.4356 132.348 36.6817 132.836 36.9942 133.234C37.3067 133.633 37.6583 133.934 38.0489 134.137C38.4473 134.34 38.8614 134.441 39.2911 134.441C39.7911 134.441 40.2364 134.348 40.627 134.16C41.0177 133.965 41.3458 133.695 41.6114 133.352C41.8848 133 42.0919 132.586 42.2325 132.109C42.3731 131.633 42.4434 131.109 42.4434 130.539C42.4434 130.031 42.3809 129.543 42.2559 129.074C42.1309 128.598 41.9395 128.176 41.6817 127.809C41.4239 127.434 41.0997 127.141 40.7091 126.93C40.3262 126.711 39.8692 126.602 39.338 126.602C38.7364 126.602 38.1739 126.75 37.6505 127.047C37.1348 127.336 36.7091 127.719 36.3731 128.195C36.045 128.664 35.8575 129.176 35.8106 129.73L34.6622 129.719C34.7716 128.844 34.9747 128.098 35.2716 127.48C35.5762 126.855 35.9512 126.348 36.3966 125.957C36.8497 125.559 37.3536 125.27 37.9083 125.09C38.4708 124.902 39.0645 124.809 39.6895 124.809C40.5411 124.809 41.2755 124.969 41.8927 125.289C42.5098 125.609 43.0177 126.039 43.4161 126.578C43.8145 127.109 44.1075 127.711 44.295 128.383C44.4903 129.047 44.588 129.73 44.588 130.434C44.588 131.238 44.4747 131.992 44.2481 132.695C44.0216 133.398 43.6817 134.016 43.2286 134.547C42.7833 135.078 42.2325 135.492 41.5762 135.789C40.92 136.086 40.1583 136.234 39.2911 136.234C38.3692 136.234 37.5645 136.047 36.877 135.672C36.1895 135.289 35.6192 134.781 35.1661 134.148C34.713 133.516 34.3731 132.812 34.1466 132.039C33.92 131.266 33.8067 130.48 33.8067 129.684V128.664C33.8067 127.461 33.9278 126.281 34.17 125.125C34.4122 123.969 34.8302 122.922 35.4239 121.984C36.0255 121.047 36.8575 120.301 37.92 119.746C38.9825 119.191 40.338 118.914 41.9864 118.914Z" fill="black"/>
<path d="M143.738 249.914H143.926V251.754H143.738C142.59 251.754 141.629 251.941 140.855 252.316C140.082 252.684 139.469 253.18 139.016 253.805C138.562 254.422 138.234 255.117 138.031 255.891C137.836 256.664 137.738 257.449 137.738 258.246V260.754C137.738 261.512 137.828 262.184 138.008 262.77C138.188 263.348 138.434 263.836 138.746 264.234C139.059 264.633 139.41 264.934 139.801 265.137C140.199 265.34 140.613 265.441 141.043 265.441C141.543 265.441 141.988 265.348 142.379 265.16C142.77 264.965 143.098 264.695 143.363 264.352C143.637 264 143.844 263.586 143.984 263.109C144.125 262.633 144.195 262.109 144.195 261.539C144.195 261.031 144.133 260.543 144.008 260.074C143.883 259.598 143.691 259.176 143.434 258.809C143.176 258.434 142.852 258.141 142.461 257.93C142.078 257.711 141.621 257.602 141.09 257.602C140.488 257.602 139.926 257.75 139.402 258.047C138.887 258.336 138.461 258.719 138.125 259.195C137.797 259.664 137.609 260.176 137.562 260.73L136.414 260.719C136.523 259.844 136.727 259.098 137.023 258.48C137.328 257.855 137.703 257.348 138.148 256.957C138.602 256.559 139.105 256.27 139.66 256.09C140.223 255.902 140.816 255.809 141.441 255.809C142.293 255.809 143.027 255.969 143.645 256.289C144.262 256.609 144.77 257.039 145.168 257.578C145.566 258.109 145.859 258.711 146.047 259.383C146.242 260.047 146.34 260.73 146.34 261.434C146.34 262.238 146.227 262.992 146 263.695C145.773 264.398 145.434 265.016 144.98 265.547C144.535 266.078 143.984 266.492 143.328 266.789C142.672 267.086 141.91 267.234 141.043 267.234C140.121 267.234 139.316 267.047 138.629 266.672C137.941 266.289 137.371 265.781 136.918 265.148C136.465 264.516 136.125 263.812 135.898 263.039C135.672 262.266 135.559 261.48 135.559 260.684V259.664C135.559 258.461 135.68 257.281 135.922 256.125C136.164 254.969 136.582 253.922 137.176 252.984C137.777 252.047 138.609 251.301 139.672 250.746C140.734 250.191 142.09 249.914 143.738 249.914Z" fill="black"/>
<path d="M104.543 291.844V309H102.375V294.551L98.0039 296.145V294.188L104.203 291.844H104.543ZM122.089 303.258V305.039H109.761V303.762L117.402 291.938H119.171L117.273 295.359L112.222 303.258H122.089ZM119.71 291.938V309H117.542V291.938H119.71ZM123.968 307.852C123.968 307.484 124.081 307.176 124.307 306.926C124.542 306.668 124.878 306.539 125.315 306.539C125.753 306.539 126.085 306.668 126.311 306.926C126.546 307.176 126.663 307.484 126.663 307.852C126.663 308.211 126.546 308.516 126.311 308.766C126.085 309.016 125.753 309.141 125.315 309.141C124.878 309.141 124.542 309.016 124.307 308.766C124.081 308.516 123.968 308.211 123.968 307.852ZM131.822 307.184H132.045C133.295 307.184 134.311 307.008 135.092 306.656C135.873 306.305 136.475 305.832 136.897 305.238C137.318 304.645 137.607 303.977 137.764 303.234C137.92 302.484 137.998 301.715 137.998 300.926V298.312C137.998 297.539 137.908 296.852 137.729 296.25C137.557 295.648 137.315 295.145 137.002 294.738C136.697 294.332 136.35 294.023 135.959 293.812C135.568 293.602 135.154 293.496 134.717 293.496C134.217 293.496 133.768 293.598 133.369 293.801C132.979 293.996 132.647 294.273 132.373 294.633C132.107 294.992 131.904 295.414 131.764 295.898C131.623 296.383 131.553 296.91 131.553 297.48C131.553 297.988 131.615 298.48 131.74 298.957C131.865 299.434 132.057 299.863 132.315 300.246C132.572 300.629 132.893 300.934 133.275 301.16C133.666 301.379 134.123 301.488 134.647 301.488C135.131 301.488 135.584 301.395 136.006 301.207C136.436 301.012 136.815 300.75 137.143 300.422C137.479 300.086 137.744 299.707 137.94 299.285C138.143 298.863 138.26 298.422 138.291 297.961H139.322C139.322 298.609 139.193 299.25 138.936 299.883C138.686 300.508 138.334 301.078 137.881 301.594C137.428 302.109 136.897 302.523 136.287 302.836C135.678 303.141 135.014 303.293 134.295 303.293C133.451 303.293 132.721 303.129 132.104 302.801C131.486 302.473 130.979 302.035 130.58 301.488C130.19 300.941 129.897 300.332 129.701 299.66C129.514 298.98 129.42 298.293 129.42 297.598C129.42 296.785 129.533 296.023 129.76 295.312C129.986 294.602 130.322 293.977 130.768 293.438C131.213 292.891 131.764 292.465 132.42 292.16C133.084 291.855 133.85 291.703 134.717 291.703C135.693 291.703 136.525 291.898 137.213 292.289C137.9 292.68 138.459 293.203 138.889 293.859C139.326 294.516 139.647 295.254 139.85 296.074C140.053 296.895 140.154 297.738 140.154 298.605V299.391C140.154 300.273 140.096 301.172 139.979 302.086C139.869 302.992 139.654 303.859 139.334 304.688C139.022 305.516 138.565 306.258 137.963 306.914C137.361 307.562 136.576 308.078 135.607 308.461C134.647 308.836 133.459 309.023 132.045 309.023H131.822V307.184Z" fill="black"/>
</svg>
