<svg width="32" height="32" viewBox="0 0 36 36" fill="none" xmlns="http://www.w3.org/2000/svg">
<rect x="0.5" y="0.5" width="35" height="35" rx="17.5" fill="white"/>
<rect x="0.5" y="0.5" width="35" height="35" rx="17.5" stroke="#DDE0E4"/>
<path d="M23.5891 13.5893C23.9145 13.2638 23.9145 12.7362 23.5891 12.4107C23.2637 12.0853 22.736 12.0853 22.4106 12.4107L17.9998 16.8215L13.5891 12.4107C13.2637 12.0853 12.736 12.0853 12.4106 12.4107C12.0851 12.7362 12.0851 13.2638 12.4106 13.5893L16.8213 18L12.4106 22.4107C12.0851 22.7362 12.0851 23.2638 12.4106 23.5893C12.736 23.9147 13.2637 23.9147 13.5891 23.5893L17.9998 19.1785L22.4106 23.5893C22.736 23.9147 23.2637 23.9147 23.5891 23.5893C23.9145 23.2638 23.9145 22.7362 23.5891 22.4107L19.1783 18L23.5891 13.5893Z" fill="#616A75"/>
</svg>
