<svg width="40" height="40" viewBox="0 0 40 40" fill="none" xmlns="http://www.w3.org/2000/svg">
<rect width="40" height="40" rx="20" fill="#F1F2F4"/>
<path fill-rule="evenodd" clip-rule="evenodd" d="M19.8841 11.6667H20.1134C20.7762 11.6664 21.2685 11.6661 21.6948 11.7803C22.8451 12.0886 23.7436 12.987 24.0519 14.1374C24.1205 14.3936 24.1478 14.6735 24.1586 15H25.6975C26.1368 15 26.5157 15 26.8279 15.0255C27.1573 15.0524 27.485 15.1118 27.8003 15.2725C28.2707 15.5122 28.6532 15.8946 28.8929 16.365C29.0535 16.6803 29.113 17.008 29.1399 17.3375C29.1654 17.6496 29.1654 18.0286 29.1654 18.4679V24.8655C29.1654 25.3048 29.1654 25.6837 29.1399 25.9959C29.113 26.3253 29.0535 26.653 28.8929 26.9683C28.6532 27.4387 28.2707 27.8212 27.8003 28.0609C27.485 28.2215 27.1573 28.281 26.8279 28.3079C26.5158 28.3334 26.1368 28.3334 25.6976 28.3333H14.2999C13.8607 28.3334 13.4816 28.3334 13.1695 28.3079C12.8401 28.281 12.5124 28.2215 12.1971 28.0609C11.7267 27.8212 11.3442 27.4387 11.1045 26.9683C10.9439 26.653 10.8844 26.3253 10.8575 25.9959C10.832 25.6837 10.832 25.3048 10.832 24.8655V18.4679C10.832 18.0286 10.832 17.6496 10.8575 17.3375C10.8844 17.008 10.9439 16.6803 11.1045 16.365C11.3442 15.8946 11.7267 15.5122 12.1971 15.2725C12.5124 15.1118 12.8401 15.0524 13.1695 15.0255C13.4817 15 13.8606 15 14.2999 15H15.839C15.8497 14.6735 15.877 14.3936 15.9457 14.1374C16.2539 12.987 17.1524 12.0886 18.3027 11.7803C18.7291 11.6661 19.2213 11.6664 19.8841 11.6667ZM22.4906 15H17.507C17.5147 14.7854 17.529 14.6677 17.5556 14.5687C17.7097 13.9936 18.1589 13.5443 18.7341 13.3902C18.9193 13.3406 19.1702 13.3334 19.9988 13.3334C20.8274 13.3334 21.0782 13.3406 21.2635 13.3902C21.8386 13.5443 22.2879 13.9936 22.442 14.5687C22.4685 14.6677 22.4829 14.7854 22.4906 15Z" fill="#616A75"/>
</svg>
