<svg width="24" height="25" viewBox="0 0 24 25" fill="none" xmlns="http://www.w3.org/2000/svg">
<path fill-rule="evenodd" clip-rule="evenodd" d="M17.1072 15.888C17.3552 15.3945 17.9562 15.1954 18.4497 15.4433C20.0841 16.2644 21.4658 17.5715 22.4657 19.1822C22.6171 19.4262 22.8376 19.7521 22.9061 20.1937C22.9794 20.6665 22.8511 21.1186 22.6598 21.4624C22.4686 21.8061 22.1522 22.1536 21.7118 22.3407C21.2931 22.5186 20.8377 22.5 20.5008 22.5C19.9485 22.5 19.5008 22.0523 19.5008 21.5C19.5008 20.9477 19.9485 20.5 20.5008 20.5C20.716 20.5 20.8292 20.4994 20.9099 20.4939L20.912 20.4902C20.9312 20.4558 20.7859 20.2683 20.7665 20.237C19.9442 18.9124 18.8293 17.8722 17.5519 17.2305C17.0584 16.9826 16.8593 16.3815 17.1072 15.888Z" fill="#2463BC"/>
<path fill-rule="evenodd" clip-rule="evenodd" d="M15.1053 3.52273C15.3511 3.02815 15.9513 2.82646 16.4459 3.07225C18.2544 3.97103 19.5008 5.83904 19.5008 8C19.5008 10.161 18.2544 12.029 16.4459 12.9278C15.9513 13.1735 15.3511 12.9719 15.1053 12.4773C14.8595 11.9827 15.0612 11.3825 15.5558 11.1367C16.7107 10.5628 17.5008 9.37276 17.5008 8C17.5008 6.62724 16.7107 5.4372 15.5558 4.86327C15.0612 4.61749 14.8595 4.01731 15.1053 3.52273Z" fill="#2463BC"/>
<path fill-rule="evenodd" clip-rule="evenodd" d="M4.00082 8C4.00082 4.96243 6.46326 2.5 9.50082 2.5C12.5384 2.5 15.0008 4.96243 15.0008 8C15.0008 11.0376 12.5384 13.5 9.50082 13.5C6.46326 13.5 4.00082 11.0376 4.00082 8Z" fill="#2463BC"/>
<path fill-rule="evenodd" clip-rule="evenodd" d="M9.50082 14.5C12.6971 14.5 15.5543 16.3041 17.2979 18.9201C17.4516 19.1506 17.6154 19.3964 17.7299 19.63C17.8677 19.9111 17.9667 20.2341 17.9436 20.6198C17.9251 20.9275 17.8231 21.2129 17.7017 21.4395C17.5804 21.6661 17.3994 21.9093 17.1536 22.0952C16.8243 22.3442 16.4694 22.4315 16.1557 22.468C15.8794 22.5001 15.5523 22.5001 15.2228 22.5C11.4096 22.4993 7.59351 22.4993 3.77889 22.5C3.44935 22.5001 3.12221 22.5001 2.84597 22.468C2.53227 22.4315 2.17738 22.3442 1.84806 22.0952C1.60223 21.9093 1.42126 21.6661 1.29992 21.4395C1.17857 21.2129 1.07652 20.9275 1.05805 20.6198C1.0349 20.2341 1.1339 19.9111 1.27175 19.63C1.38627 19.3964 1.55008 19.1506 1.7037 18.9201C3.44728 16.3041 6.30459 14.5 9.50082 14.5Z" fill="#2463BC"/>
</svg>
