<svg width="20" height="20" viewBox="0 0 20 20" fill="none" xmlns="http://www.w3.org/2000/svg">
<path fill-rule="evenodd" clip-rule="evenodd" d="M4.30138 5.83331H10.6989C11.1382 5.8333 11.5172 5.83329 11.8294 5.85879C12.1588 5.88571 12.4865 5.94514 12.8018 6.1058C13.2722 6.34548 13.6547 6.72793 13.8943 7.19834C14.055 7.51366 14.1144 7.84134 14.1414 8.17079C14.1669 8.48293 14.1668 8.86188 14.1668 9.30116V15.6988C14.1668 16.138 14.1669 16.517 14.1414 16.8292C14.1144 17.1586 14.055 17.4863 13.8943 17.8016C13.6547 18.272 13.2722 18.6545 12.8018 18.8942C12.4865 19.0548 12.1588 19.1143 11.8294 19.1412C11.5172 19.1667 11.1383 19.1667 10.699 19.1666H4.30139C3.86214 19.1667 3.4831 19.1667 3.17097 19.1412C2.84152 19.1143 2.51384 19.0548 2.19852 18.8942C1.72811 18.6545 1.34566 18.272 1.10598 17.8016C0.945318 17.4863 0.885887 17.1586 0.85897 16.8292C0.833467 16.517 0.833481 16.138 0.833497 15.6988V9.30121C0.833481 8.86191 0.833467 8.48294 0.85897 8.17079C0.885887 7.84134 0.945318 7.51366 1.10598 7.19834C1.34566 6.72793 1.72811 6.34548 2.19852 6.1058C2.51384 5.94514 2.84152 5.88571 3.17097 5.85879C3.48311 5.83329 3.8621 5.8333 4.30138 5.83331Z" fill="#616A75"/>
<path d="M15.699 0.833314H9.30138C8.8621 0.833299 8.48311 0.833287 8.17098 0.85879C7.84152 0.885707 7.51384 0.945137 7.19852 1.1058C6.72812 1.34548 6.34567 1.72793 6.10598 2.19834C5.94532 2.51366 5.88589 2.84134 5.85897 3.17079C5.83611 3.45061 5.83376 3.78413 5.83352 4.16667L10.7342 4.16666C11.1414 4.16656 11.5829 4.16646 11.9651 4.19768C12.3976 4.23302 12.969 4.32048 13.5585 4.62081C14.3425 5.02028 14.9799 5.6577 15.3794 6.44171C15.6797 7.03114 15.7671 7.60257 15.8025 8.03509C15.8337 8.41725 15.8336 8.85875 15.8335 9.26596L15.8335 14.1666C16.216 14.1664 16.5495 14.164 16.8294 14.1412C17.1588 14.1143 17.4865 14.0548 17.8018 13.8942C18.2722 13.6545 18.6547 13.272 18.8944 12.8016C19.055 12.4863 19.1144 12.1586 19.1414 11.8292C19.1669 11.517 19.1668 11.1381 19.1668 10.6989V4.30121C19.1668 3.86196 19.1669 3.48292 19.1414 3.17079C19.1144 2.84134 19.055 2.51366 18.8944 2.19834C18.6547 1.72793 18.2722 1.34548 17.8018 1.1058C17.4865 0.945137 17.1588 0.885707 16.8294 0.85879C16.5172 0.833287 16.1382 0.833299 15.699 0.833314Z" fill="#616A75"/>
</svg>
