<svg width="40" height="40" viewBox="0 0 40 40" fill="none" xmlns="http://www.w3.org/2000/svg">
<rect width="40" height="40" rx="20" fill="#F1F2F4"/>
<path d="M11.7766 16.8179C11.5267 16.6393 11.4017 16.5501 11.2928 16.5385C11.1298 16.5211 10.9665 16.6052 10.8859 16.7478C10.832 16.8432 10.832 16.9951 10.832 17.2989V22.7011C10.832 23.3719 10.832 23.9255 10.8689 24.3765C10.9071 24.8449 10.9893 25.2755 11.1953 25.68C11.5149 26.3072 12.0249 26.8171 12.6521 27.1367C13.0565 27.3428 13.4871 27.4249 13.9555 27.4632C14.4065 27.5 14.9601 27.5 15.6309 27.5H24.3665C25.0373 27.5 25.5909 27.5 26.0419 27.4632C26.5103 27.4249 26.9409 27.3428 27.3453 27.1367C27.9725 26.8171 28.4825 26.3072 28.8021 25.68C29.0081 25.2755 29.0903 24.8449 29.1285 24.3765C29.1654 23.9255 29.1654 23.3719 29.1654 22.7011V17.2989C29.1654 17.15 29.1654 17.0756 29.1517 17.0236C29.0901 16.7886 28.8346 16.6547 28.6062 16.7378C28.5557 16.7561 28.4937 16.799 28.3698 16.8849L21.918 21.3516C21.4605 21.6693 21.0589 21.9482 20.6026 22.0588C20.2035 22.1556 19.7867 22.1525 19.3891 22.0499C18.9345 21.9326 18.537 21.6478 18.0842 21.3234L11.7766 16.8179Z" fill="#616A75"/>
<path d="M28.4427 14.8073C28.5965 14.7008 28.6735 14.6475 28.7207 14.5619C28.7574 14.4954 28.7784 14.39 28.77 14.3145C28.7592 14.2173 28.7178 14.1531 28.6352 14.0248C28.3186 13.533 27.8631 13.1271 27.3453 12.8633C26.9409 12.6572 26.5103 12.5751 26.0419 12.5368C25.5909 12.5 25.0373 12.5 24.3665 12.5H15.6309C14.9601 12.5 14.4065 12.5 13.9555 12.5368C13.4871 12.5751 13.0565 12.6572 12.6521 12.8633C12.1862 13.1007 11.7835 13.4438 11.4773 13.8611C11.381 13.9924 11.3328 14.058 11.317 14.1577C11.3046 14.2356 11.3219 14.3438 11.358 14.4139C11.4042 14.5036 11.4843 14.5608 11.6445 14.6753L18.9571 19.8986C19.5631 20.3314 19.6917 20.4067 19.8055 20.4361C19.938 20.4703 20.077 20.4713 20.21 20.4391C20.3242 20.4114 20.4539 20.338 21.0662 19.9141L28.4427 14.8073Z" fill="#616A75"/>
</svg>
