<svg width="24" height="25" viewBox="0 0 24 25" fill="none" xmlns="http://www.w3.org/2000/svg">
<g opacity="0.8">
<path fill-rule="evenodd" clip-rule="evenodd" d="M1 12.5C1 6.42487 5.92487 1.5 12 1.5C18.0751 1.5 23 6.42487 23 12.5C23 18.5751 18.0751 23.5 12 23.5C5.92487 23.5 1 18.5751 1 12.5ZM13 6.5C13 5.94772 12.5523 5.5 12 5.5C11.4477 5.5 11 5.94772 11 6.5V12.5C11 12.8788 11.214 13.225 11.5528 13.3944L15.5528 15.3944C16.0468 15.6414 16.6474 15.4412 16.8944 14.9472C17.1414 14.4532 16.9412 13.8526 16.4472 13.6056L13 11.882V6.5Z" fill="#87909B"/>
</g>
</svg>
