<svg width="40" height="40" viewBox="0 0 40 40" fill="none" xmlns="http://www.w3.org/2000/svg">
<rect width="40" height="40" rx="20" fill="#F1F2F4"/>
<path fill-rule="evenodd" clip-rule="evenodd" d="M23.3808 28.2337C20.7197 27.4785 18.209 26.0532 16.1159 23.9601C14.0229 21.8671 12.5976 19.3563 11.8423 16.6953C11.8379 16.6795 11.8334 16.6639 11.829 16.6484C11.7061 16.2159 11.6108 15.8805 11.6094 15.4206C11.6078 14.8949 11.7791 14.2364 12.0365 13.7781C12.4793 12.99 13.4299 11.9799 14.251 11.5646C14.9604 11.2058 15.7983 11.2058 16.5077 11.5646C17.2096 11.9196 17.9913 12.7142 18.427 13.3845C18.9658 14.2131 18.9658 15.2813 18.427 16.1099C18.2826 16.3319 18.0769 16.5374 17.838 16.7759C17.7636 16.8501 17.6817 16.9038 17.7361 17.017C18.276 18.1414 19.0122 19.1961 19.9461 20.13C20.88 21.0639 21.9347 21.8001 23.0591 22.34C23.1763 22.3963 23.2225 22.3159 23.3002 22.2381C23.5387 21.9992 23.7441 21.7934 23.9662 21.6491C24.7948 21.1103 25.863 21.1103 26.6916 21.6491C27.3439 22.0732 28.1592 22.872 28.5115 23.5683C28.8703 24.2778 28.8703 25.1156 28.5115 25.8251C28.0961 26.6462 27.0861 27.5968 26.298 28.0395C25.8397 28.297 25.1811 28.4682 24.6555 28.4667C24.1956 28.4653 23.8602 28.37 23.4277 28.2471C23.4122 28.2427 23.3965 28.2382 23.3808 28.2337Z" fill="#616A75"/>
</svg>
