<svg width="40" height="40" viewBox="0 0 40 40" fill="none" xmlns="http://www.w3.org/2000/svg">
<rect width="40" height="40" rx="20" fill="#F1F2F4"/>
<path d="M27.9965 11.2146C27.6666 11.1044 27.3596 11.1841 27.2069 11.2284C27.0406 11.2767 26.8423 11.3542 26.6434 11.4318L12.5125 16.9463C12.2901 17.0331 12.0747 17.1171 11.9085 17.1993C11.7649 17.2703 11.4596 17.4284 11.2892 17.7564C11.1013 18.1181 11.1015 18.5487 11.2899 18.9102C11.4607 19.238 11.7661 19.3957 11.9098 19.4666C12.0762 19.5486 12.2916 19.6323 12.5141 19.7188L18.1068 21.8938L20.2817 27.4864C20.3682 27.7089 20.452 27.9244 20.534 28.0907C20.6048 28.2344 20.7625 28.5399 21.0903 28.7107C21.4518 28.899 21.8825 28.8993 22.2442 28.7114C22.5722 28.541 22.7303 28.2357 22.8013 28.092C22.8835 27.9258 22.9675 27.7105 23.0542 27.4881L28.5687 13.3572C28.6464 13.1582 28.7238 12.96 28.7721 12.7936C28.8165 12.641 28.8962 12.3339 28.786 12.0041C28.6615 11.6315 28.3691 11.3391 27.9965 11.2146Z" fill="#616A75"/>
</svg>
