<svg width="32" height="33" viewBox="0 0 32 33" fill="none" xmlns="http://www.w3.org/2000/svg">
<rect y="0.5" width="32" height="32" rx="16" fill="#2463BC"/>
<path d="M12.4239 9.24408C12.0985 8.91864 11.5708 8.91864 11.2454 9.24408L7.91205 12.5774C7.58661 12.9028 7.58661 13.4305 7.91205 13.7559C8.23748 14.0814 8.76512 14.0814 9.09056 13.7559L11.0013 11.8452L11.0013 23.1667C11.0013 23.6269 11.3744 24 11.8346 24C12.2949 24 12.668 23.6269 12.668 23.1667L12.668 11.8452L14.5787 13.7559C14.9042 14.0814 15.4318 14.0814 15.7572 13.7559C16.0827 13.4305 16.0827 12.9028 15.7572 12.5774L12.4239 9.24408Z" fill="white"/>
<path d="M21.0013 21.1548V9.83333C21.0013 9.3731 20.6282 9 20.168 9C19.7077 9 19.3346 9.3731 19.3346 9.83333V21.1548L17.4239 19.2441C17.0985 18.9186 16.5708 18.9186 16.2454 19.2441C15.9199 19.5695 15.9199 20.0972 16.2454 20.4226L19.5787 23.7559C19.9042 24.0814 20.4318 24.0814 20.7572 23.7559L24.0906 20.4226C24.416 20.0972 24.416 19.5695 24.0906 19.2441C23.7651 18.9186 23.2375 18.9186 22.912 19.2441L21.0013 21.1548Z" fill="white"/>
</svg>
